<svg xmlns="http://www.w3.org/2000/svg" data-name="Layer 1" viewBox="0 0 96 120" x="0px" y="0px"><title>Artboard 156</title><path d="M87.13,52.36H76.49a2,2,0,0,0-1.95,1.57A27.19,27.19,0,0,1,23.42,60h4a2,2,0,0,0,1.24-3.57L16,46.43a2,2,0,0,0-2.6.11l-10.73,10A2,2,0,0,0,4,60H8a41.65,41.65,0,0,0,81.15-5.33,2,2,0,0,0-2-2.31Z"/><path d="M93.86,37.27A2,2,0,0,0,92,36H87.9A41.65,41.65,0,0,0,6.75,41.33a2,2,0,0,0,2,2.31H19.37a2,2,0,0,0,1.95-1.57A27.19,27.19,0,0,1,72.44,36h-3.9a2,2,0,0,0-1.24,3.57L80,49.57a2,2,0,0,0,2.6-.11l10.73-10A2,2,0,0,0,93.86,37.27Z"/><path d="M49.23,53.82a7,7,0,0,1-6.56-3.32l-3.34,2.2A11.45,11.45,0,0,0,46,57.56V61h4V57.75c3.11-.53,6.55-2.74,6.94-5.91.64-5.28-3.82-6.62-5.29-7.07s-2.44-.69-3.42-.94c-2.6-.67-3.38-.9-4.07-1.83a2,2,0,0,1-.36-1.63,2.77,2.77,0,0,1,1.33-1.79A5.54,5.54,0,0,1,49,38.36a6.7,6.7,0,0,1,4.17,3l3.48-2a10.7,10.7,0,0,0-6.64-4.9h0V31H46v3.21a7.39,7.39,0,0,0-2.93.95,6.79,6.79,0,0,0-3.2,4.43,6,6,0,0,0,1.07,4.78c1.56,2.12,3.55,2.63,6.29,3.34.94.24,2,.51,3.27.89,2.31.7,2.64,1.3,2.46,2.75C52.84,52.34,51,53.56,49.23,53.82Z"/><text x="0" y="111" fill="#000000" font-size="5px" font-weight="bold" font-family="'Helvetica Neue', Helvetica, Arial-Unicode, Arial, Sans-serif">Created by crywill</text><text x="0" y="116" fill="#000000" font-size="5px" font-weight="bold" font-family="'Helvetica Neue', Helvetica, Arial-Unicode, Arial, Sans-serif">from the Noun Project</text></svg>